<svg width="25" height="25" viewBox="0 0 25 25" fill="none" xmlns="http://www.w3.org/2000/svg">
<path fill-rule="evenodd" clip-rule="evenodd" d="M2.60141 0.450562C1.16469 0.450562 0 1.61526 0 3.05197V16.5992C0 18.0359 1.1647 19.2005 2.60141 19.2005H9.79118L8.83546 21.8709H7.14282C6.40316 21.8709 5.80354 22.4705 5.80354 23.2102C5.80354 23.9498 6.40316 24.5495 7.14282 24.5495H17.8571C18.5968 24.5495 19.1964 23.9498 19.1964 23.2102C19.1964 22.4705 18.5968 21.8709 17.8571 21.8709H16.1645L15.2088 19.2005H22.3986C23.8354 19.2005 25 18.0359 25 16.5992V3.05197C25 1.61526 23.8354 0.450562 22.3986 0.450562H2.60141ZM8.933 11.4028C8.50086 10.9633 7.79423 10.9573 7.3547 11.3894C6.91518 11.8216 6.9092 12.5282 7.34134 12.9677C8.40298 14.0475 10.1926 14.9595 12.5 14.9595C14.8074 14.9595 16.597 14.0475 17.6587 12.9677C18.0909 12.5282 18.0848 11.8216 17.6453 11.3894C17.2058 10.9573 16.4991 10.9633 16.067 11.4028C15.4274 12.0533 14.2123 12.7273 12.5 12.7273C10.7877 12.7273 9.57259 12.0533 8.933 11.4028ZM10.7426 7.14742C10.7426 7.90251 10.1305 8.51462 9.37543 8.51462C8.62036 8.51462 8.00825 7.90251 8.00825 7.14742C8.00825 6.39235 8.62036 5.78024 9.37543 5.78024C10.1305 5.78024 10.7426 6.39235 10.7426 7.14742ZM15.625 8.51462C16.3801 8.51462 16.9922 7.90251 16.9922 7.14742C16.9922 6.39235 16.3801 5.78024 15.625 5.78024C14.8699 5.78024 14.2578 6.39235 14.2578 7.14742C14.2578 7.90251 14.8699 8.51462 15.625 8.51462Z" fill="#023DFE"/>
</svg>
