<svg width="24" height="27" viewBox="0 0 24 27" fill="none" xmlns="http://www.w3.org/2000/svg">
<path fill-rule="evenodd" clip-rule="evenodd" d="M20.4687 0.120484H4.87426C3.78007 0.120229 2.72847 0.547151 1.94437 1.31034C1.16014 2.07366 0.704961 3.11301 0.675777 4.20699L0.675262 4.24556V22.6659L0.67527 22.6707C0.676535 23.7823 1.11873 24.8484 1.90497 25.6345C2.69233 26.422 3.76024 26.8644 4.87374 26.8644H20.4448L20.4694 26.8646L20.4943 26.8644H22.3033C23.1021 26.8644 23.7497 26.2168 23.7497 25.4179C23.7497 24.6191 23.1021 23.9715 22.3033 23.9715H21.9159V21.0239C22.2362 20.8665 22.5317 20.6565 22.7887 20.3992C23.4041 19.784 23.7497 18.9494 23.7497 18.0792V3.40162C23.7497 2.53141 23.4041 1.69683 22.7887 1.0815C22.1735 0.466172 21.3388 0.120484 20.4687 0.120484ZM3.95053 23.5891C3.70568 23.3441 3.56812 23.012 3.56812 22.6659C3.56815 22.3197 3.7057 21.9876 3.95053 21.7427C4.19538 21.4979 4.52746 21.3604 4.87374 21.3604H19.023V23.9715H4.87374C4.52746 23.9715 4.19538 23.8338 3.95053 23.5891ZM15.5425 16.0554C14.864 16.2154 14.1521 16.1552 13.51 15.8836C10.9157 14.3279 8.74473 12.1569 7.18901 9.56261C6.91982 8.92013 6.86094 8.20893 7.0208 7.53094C7.18064 6.85295 7.55102 6.24296 8.07887 5.7884L8.55448 5.3128C8.72053 5.1059 8.96013 4.97121 9.22321 4.9369C9.48627 4.90259 9.75241 4.9713 9.96596 5.12869L11.5002 6.66291C11.6576 6.87648 11.7263 7.14262 11.692 7.40568C11.6577 7.66874 11.523 7.90836 11.3161 8.07441C11.1092 8.24044 10.9745 8.48007 10.9402 8.74313C10.9059 9.00618 10.9746 9.27233 11.132 9.4859L13.5868 11.9407C13.8003 12.0981 14.0664 12.1668 14.3295 12.1325C14.5926 12.0981 14.8322 11.9635 14.9982 11.7566C15.1643 11.5497 15.4039 11.415 15.667 11.3807C15.93 11.3464 16.1962 11.4151 16.4097 11.5724L17.944 13.1067C18.1013 13.3202 18.1701 13.5864 18.1358 13.8494C18.1014 14.1125 17.9668 14.3521 17.7599 14.5182L17.2842 14.9938C16.8311 15.5236 16.2211 15.8954 15.5425 16.0554Z" fill="#1B1B1B"/>
</svg>
