<svg width="25" height="25" viewBox="0 0 25 25" fill="none" xmlns="http://www.w3.org/2000/svg">
<path fill-rule="evenodd" clip-rule="evenodd" d="M4.46428 0C3.75388 0 3.07256 0.282205 2.57024 0.784536C2.06792 1.28686 1.78571 1.96818 1.78571 2.67857V22.3214C1.78571 23.0318 2.06792 23.7132 2.57024 24.2155C3.07256 24.7179 3.75387 25 4.46428 25H20.5357C21.2461 25 21.9275 24.7179 22.4298 24.2155C22.9321 23.7132 23.2143 23.0318 23.2143 22.3214V9.82143C23.2143 9.58463 23.1202 9.35752 22.9528 9.19009L14.0242 0.261512C13.8568 0.0940686 13.6297 0 13.3928 0H4.46428ZM6.68378 10.4911C7.2937 10.4911 7.8469 10.8488 8.09717 11.405L8.9284 13.2525L9.75995 11.4049C10.0102 10.8487 10.5634 10.4911 11.1733 10.4911C12.0293 10.4911 12.7232 11.185 12.7232 12.0409V18.75C12.7232 19.3664 12.2235 19.8661 11.6071 19.8661C10.9907 19.8661 10.491 19.3664 10.491 18.75V15.2193L10.4498 15.311C10.1803 15.9096 9.58483 16.2946 8.92833 16.2946C8.27174 16.2946 7.67621 15.9096 7.40681 15.3108L7.36606 15.2202V18.75C7.36606 19.3664 6.86638 19.8661 6.24999 19.8661C5.6336 19.8661 5.13392 19.3664 5.13392 18.75V12.0409C5.13392 11.185 5.82781 10.4911 6.68378 10.4911ZM18.0803 11.6071C18.0803 10.9907 17.5807 10.4911 16.9643 10.4911C16.3479 10.4911 15.8482 10.9907 15.8482 11.6071V16.0712H15.1786C14.8174 16.0712 14.4919 16.2887 14.3537 16.6224C14.2155 16.956 14.2919 17.3401 14.5472 17.5954L16.3329 19.3811C16.5004 19.5486 16.7275 19.6427 16.9643 19.6427C17.2011 19.6427 17.4282 19.5486 17.5956 19.3811L19.3814 17.5954C19.6368 17.3401 19.713 16.956 19.5748 16.6224C19.4366 16.2887 19.1111 16.0712 18.75 16.0712H18.0803V11.6071Z" fill="#1B1B1B"/>
</svg>
