<svg width="25" height="25" viewBox="0 0 25 25" fill="none" xmlns="http://www.w3.org/2000/svg">
<path fill-rule="evenodd" clip-rule="evenodd" d="M1.78571 2.23212C1.31211 2.23212 0.857911 2.42026 0.523023 2.75513C0.188137 3.09003 0 3.54422 0 4.01783V20.0893C0 20.7996 0.282205 21.481 0.784536 21.9834C1.28686 22.4857 1.96816 22.7678 2.67857 22.7678H21.875C22.7037 22.7678 23.4986 22.4385 24.0846 21.8525C24.6707 21.2664 25 20.4716 25 19.6428V8.03569C25 7.54258 24.6002 7.14283 24.1071 7.14283H22.3554V18.6768C22.3554 19.2932 21.8557 19.7928 21.2393 19.7928C20.6229 19.7928 20.1232 19.2932 20.1232 18.6768V6.68463C20.1232 6.66621 20.1236 6.6479 20.1245 6.62971V4.01783C20.1245 3.54422 19.9364 3.09003 19.6014 2.75513C19.2666 2.42026 18.8123 2.23212 18.3388 2.23212H1.78571ZM4.97595 7.20806C4.97595 6.71496 5.3757 6.31521 5.8688 6.31521H13.9045C14.3976 6.31521 14.7974 6.71496 14.7974 7.20806V11.6723C14.7974 12.1655 14.3976 12.5652 13.9045 12.5652H5.8688C5.3757 12.5652 4.97595 12.1655 4.97595 11.6723V7.20806ZM4.75273 17.4107C4.75273 16.7943 5.25241 16.2946 5.8688 16.2946H13.9045C14.5209 16.2946 15.0206 16.7943 15.0206 17.4107C15.0206 18.0271 14.5209 18.5268 13.9045 18.5268H5.8688C5.25241 18.5268 4.75273 18.0271 4.75273 17.4107Z" fill="#1B1B1B"/>
</svg>
