<svg width="165" height="142" viewBox="0 0 165 142" fill="none" xmlns="http://www.w3.org/2000/svg">
<path d="M165 0C165 22 144.5 23.4536 144.5 23.4536H46.4535C4 23.4536 0.254927 44.2031 0 62.9771V82.9554L165 82.9555V0Z" fill="white"/>
<path d="M165 0C165 22 144.5 23.4536 144.5 23.4536H46.4535C4 23.4536 0.254927 44.2031 0 62.9771V82.9554L165 82.9555V0Z" fill="white"/>
<path d="M165 141.955C165 119.955 144.5 118.502 144.5 118.502H46.4535C4 118.502 0.254927 97.7523 0 78.9783V59.0001L165 59V141.955Z" fill="white"/>
<path d="M165 141.955C165 119.955 144.5 118.502 144.5 118.502H46.4535C4 118.502 0.254927 97.7523 0 78.9783V59.0001L165 59V141.955Z" fill="white"/>
</svg>
