<svg width="165" height="142" viewBox="0 0 165 142" fill="none" xmlns="http://www.w3.org/2000/svg">
<path d="M165 0C163.935 2.99674 160.357 8.73074 155.569 10.4359C150.781 12.141 146.552 12.8125 143.348 13.1399C140.144 13.4673 46.4535 23.4536 46.4535 23.4536C4.98759 28.0322 0.254927 44.2031 0 62.9771V82.9554L165 82.9555V0Z" fill="white"/>
<path d="M165 141.5C164.5 139 160.357 132.424 155.569 130.719C150.781 129.014 146.552 128.342 143.348 128.015C140.144 127.688 46.4535 117.701 46.4535 117.701C4.98759 113.123 0.254927 96.9518 0 78.1778V58.1995H164.971L165 141.5Z" fill="white"/>
</svg>
