<svg width="130" height="111" viewBox="0 0 130 111" fill="none" xmlns="http://www.w3.org/2000/svg">
<path d="M130 0C129.161 2.3508 126.342 6.84885 122.569 8.18643C118.797 9.52402 115.465 10.0508 112.941 10.3076C110.417 10.5644 36.5997 18.3983 36.5997 18.3983C3.92962 21.9899 0.200851 34.6752 0 49.4025V65.0745L130 65.0746V0Z" fill="white"/>
<path d="M130 111C129.606 109.039 126.342 103.88 122.569 102.543C118.797 101.205 115.465 100.678 112.941 100.422C110.417 100.165 36.5997 92.331 36.5997 92.331C3.92962 88.7393 0.200851 76.054 0 61.3267V45.6547H129.977L130 111Z" fill="white"/>
</svg>
