<svg width="83" height="95" viewBox="0 0 83 95" fill="none" xmlns="http://www.w3.org/2000/svg">
<rect width="83" height="95" rx="6" fill="#1E1E1E"/>
<path fill-rule="evenodd" clip-rule="evenodd" d="M54.104 23.104C49.9747 20.7667 45.149 19.598 39.6267 19.598H31.6605L20.0004 30.2986V75.5346H39.6267C45.0992 75.5346 49.9001 74.366 54.0293 72.0286C58.2083 69.6913 61.4172 66.3978 63.6559 62.1481C65.9444 57.8984 67.0887 53.0378 67.0887 47.5663C67.0887 42.0417 65.9444 37.1811 63.6559 32.9846C61.4172 28.7349 58.2332 25.4414 54.104 23.104ZM32.7651 53.5391L20.0004 73.0446V75.5346H21.9437L36.5664 63.7417H38.8058C43.6316 63.7417 47.3877 62.334 50.0742 59.5186C52.7607 56.7032 54.104 52.7191 54.104 47.5663C54.104 42.4136 52.7607 38.4029 50.0742 35.5344C47.3877 32.6658 43.6316 31.2316 38.8058 31.2316C36.7411 31.2316 36.2471 31.2316 34.3812 31.2316C34.1139 31.2316 34.677 31.2316 34.3812 31.2316C33.2152 31.2316 32.8265 31.5436 32.8265 32.7887C32.8265 42.5426 32.7651 43.5236 32.7651 53.5391Z" fill="#EEF2F8"/>
<path d="M32.4252 47.0902C26.2107 58.0502 13.2789 81.7149 12.9437 82.4307L42.8992 63.8657H36.4053L16.9238 78.1809L32.4252 53.8004V47.0902Z" fill="#EEF2F8"/>
<path d="M37.8793 12.8682L35.5472 20.3383L48.7621 21.5834L46.43 12.8682H37.8793Z" fill="#EEF2F8"/>
<path d="M54.2035 23.6584L61.1996 19.9233L67.4183 26.5635L63.9203 34.0336L54.2035 23.6584Z" fill="#EEF2F8"/>
<path d="M73.637 43.1638L64.6976 40.2588V55.6141L73.637 52.294V43.1638Z" fill="#EEF2F8"/>
<path d="M67.0296 68.4794L63.5316 60.5942L53.8148 70.9695L60.8109 75.1196L67.0296 68.4794Z" fill="#EEF2F8"/>
<path d="M37.4906 81.7597L35.1586 74.7046L48.7621 73.4595L46.0414 81.7597H37.4906Z" fill="#EEF2F8"/>
<path d="M37.8793 12.8682L35.5472 20.3383L48.7621 21.5834L46.43 12.8682H37.8793Z" stroke="#EEF2F8" stroke-width="2" stroke-linejoin="round"/>
<path d="M54.2035 23.6584L61.1996 19.9233L67.4183 26.5635L63.9203 34.0336L54.2035 23.6584Z" stroke="#EEF2F8" stroke-width="2" stroke-linejoin="round"/>
<path d="M73.637 43.1638L64.6976 40.2588V55.6141L73.637 52.294V43.1638Z" stroke="#EEF2F8" stroke-width="2" stroke-linejoin="round"/>
<path d="M67.0296 68.4794L63.5316 60.5942L53.8148 70.9695L60.8109 75.1196L67.0296 68.4794Z" stroke="#EEF2F8" stroke-width="2" stroke-linejoin="round"/>
<path d="M37.4906 81.7597L35.1586 74.7046L48.7621 73.4595L46.0414 81.7597H37.4906Z" stroke="#EEF2F8" stroke-width="2" stroke-linejoin="round"/>
<path d="M31.6605 19.5084L20.0004 30.2987H31.6605V19.5084Z" fill="#023DFE"/>
</svg>
