<svg width="1533" height="76" viewBox="0 0 1533 76" fill="none" xmlns="http://www.w3.org/2000/svg">
<path d="M56.6839 57.6598L56.699 57.6883L56.7147 57.7165C61.1958 65.708 67.6791 69.6911 76.3622 71.6268C84.7657 73.5001 95.4512 73.5001 108.573 73.5H108.861H356.946H1173.83H1421.91H1422.2C1435.32 73.5001 1446.01 73.5001 1454.41 71.6268C1463.09 69.6911 1469.58 65.708 1474.06 57.7165L1474.07 57.6883L1474.09 57.6598L1489.16 29.067C1489.17 29.0577 1489.17 29.0484 1489.18 29.039C1489.27 28.867 1489.37 28.6826 1489.48 28.4875C1490.36 26.8717 1491.63 24.5186 1494.44 22.3615C1497.56 19.9573 1502.82 17.651 1511.97 17.651V15.151V12.651L18.8067 12.6511V15.1511V17.6511C27.9495 17.6511 33.212 19.9574 36.3367 22.3616C39.1402 24.5185 40.4156 26.8716 41.2914 28.4874C41.397 28.6821 41.4967 28.8661 41.5926 29.0378L56.6839 57.6598Z" fill="white" stroke="#023DFE" stroke-width="5"/>
<rect width="1533" height="15" fill="white"/>
</svg>
