<svg width="1090" height="59" viewBox="0 0 1090 59" fill="none" xmlns="http://www.w3.org/2000/svg">
<g filter="url(#filter0_d_354_161)">
<path d="M30.8023 11.4908C29.6115 9.73841 26.6623 4.02641 13 4.02641C13 4.02641 53.0288 3.96699 58.1268 4.02641L836.047 4.02641V36.8696H77.1712C58.1268 36.8696 47.3626 36.8696 41.5665 28.3389L30.8023 11.4908Z" fill="white"/>
<path d="M30.8023 11.4908C29.6115 9.73841 26.6623 4.02641 13 4.02641C13 4.02641 53.0288 3.96699 58.1268 4.02641L836.047 4.02641V36.8696H77.1712C58.1268 36.8696 47.3626 36.8696 41.5665 28.3389L30.8023 11.4908Z" fill="white"/>
<path d="M1059.2 11.4908C1060.39 9.73841 1063.34 4.02641 1077 4.02641C1077 4.02641 1036.97 3.96699 1031.87 4.02641L253.953 4.02641V36.8696H1012.83C1031.87 36.8696 1042.64 36.8696 1048.43 28.3389L1059.2 11.4908Z" fill="white"/>
<path d="M1059.2 11.4908C1060.39 9.73841 1063.34 4.02641 1077 4.02641C1077 4.02641 1036.97 3.96699 1031.87 4.02641L253.953 4.02641V36.8696H1012.83C1031.87 36.8696 1042.64 36.8696 1048.43 28.3389L1059.2 11.4908Z" fill="white"/>
</g>
<defs>
<filter id="filter0_d_354_161" x="0" y="0" width="1090" height="58.8696" filterUnits="userSpaceOnUse" color-interpolation-filters="sRGB">
<feFlood flood-opacity="0" result="BackgroundImageFix"/>
<feColorMatrix in="SourceAlpha" type="matrix" values="0 0 0 0 0 0 0 0 0 0 0 0 0 0 0 0 0 0 127 0" result="hardAlpha"/>
<feOffset dy="9"/>
<feGaussianBlur stdDeviation="6.5"/>
<feComposite in2="hardAlpha" operator="out"/>
<feColorMatrix type="matrix" values="0 0 0 0 0 0 0 0 0 0 0 0 0 0 0 0 0 0 0.25 0"/>
<feBlend mode="normal" in2="BackgroundImageFix" result="effect1_dropShadow_354_161"/>
<feBlend mode="normal" in="SourceGraphic" in2="effect1_dropShadow_354_161" result="shape"/>
</filter>
</defs>
</svg>
