<svg width="78" height="85" viewBox="0 0 78 85" fill="none" xmlns="http://www.w3.org/2000/svg">
<path fill-rule="evenodd" clip-rule="evenodd" d="M52.5408 13.0038C47.3701 10.2628 41.3273 8.89224 34.4124 8.89224H24.4371L9.83633 21.4411V74.4907H34.4124C41.265 74.4907 47.2767 73.1202 52.4473 70.3791C57.6802 67.6381 61.6984 63.7757 64.5017 58.7919C67.3674 53.8082 68.8002 48.108 68.8002 41.6915C68.8002 35.2126 67.3674 29.5125 64.5017 24.591C61.6984 19.6073 57.7114 15.7449 52.5408 13.0038ZM25.8203 48.6959L9.83633 71.5705V74.4907H12.2698L30.5803 60.6608H33.3845C39.4273 60.6608 44.1307 59.01 47.4947 55.7082C50.8587 52.4065 52.5408 47.7343 52.5408 41.6915C52.5408 35.6487 50.8587 30.9453 47.4947 27.5813C44.1307 24.2172 39.4273 22.5352 33.3845 22.5352C30.799 22.5352 30.1805 22.5352 27.844 22.5352C27.5093 22.5352 28.2144 22.5352 27.844 22.5352C26.3839 22.5352 25.8972 22.9012 25.8972 24.3613C25.8972 35.8 25.8203 36.9504 25.8203 48.6959Z" fill="black"/>
<path d="M32.2242 1L29.3041 9.76048L45.8516 11.2206L42.9315 1H32.2242Z" fill="black"/>
<path d="M52.6654 13.654L61.4258 9.27378L69.2129 17.0609L64.8327 25.8214L52.6654 13.654Z" fill="black"/>
<path d="M77 36.5286L65.8061 33.1218V51.1294L77 47.2359V36.5286Z" fill="black"/>
<path d="M68.7262 66.2169L64.346 56.9697L52.1787 69.1371L60.9391 74.004L68.7262 66.2169Z" fill="black"/>
<path d="M31.7375 81.7911L28.8174 73.5173L45.8516 72.0572L42.4448 81.7911H31.7375Z" fill="black"/>
<path d="M32.2242 1L29.3041 9.76048L45.8516 11.2206L42.9315 1H32.2242Z" stroke="black" stroke-width="2" stroke-linejoin="round"/>
<path d="M52.6654 13.654L61.4258 9.27378L69.2129 17.0609L64.8327 25.8214L52.6654 13.654Z" stroke="black" stroke-width="2" stroke-linejoin="round"/>
<path d="M77 36.5286L65.8061 33.1218V51.1294L77 47.2359V36.5286Z" stroke="black" stroke-width="2" stroke-linejoin="round"/>
<path d="M68.7262 66.2169L64.346 56.9697L52.1787 69.1371L60.9391 74.004L68.7262 66.2169Z" stroke="black" stroke-width="2" stroke-linejoin="round"/>
<path d="M31.7375 81.7911L28.8174 73.5173L45.8516 72.0572L42.4448 81.7911H31.7375Z" stroke="black" stroke-width="2" stroke-linejoin="round"/>
<path d="M24.4371 8.78708L9.83633 21.4411H24.4371V8.78708Z" fill="#023DFE"/>
<path d="M25.0367 29C25.0367 29 0.430738 83.2165 0 84.078L47 61.7335H30.1517L5.11502 78.963L25.0367 49.6189V29Z" fill="black"/>
</svg>
