<svg width="105" height="112" viewBox="0 0 105 112" fill="none" xmlns="http://www.w3.org/2000/svg">
<rect width="105" height="112" rx="6" fill="#1E1E1E"/>
<path fill-rule="evenodd" clip-rule="evenodd" d="M66.5407 25.0038C61.3701 22.2628 55.3273 20.8923 48.4124 20.8923H38.4371L23.8363 33.4411V86.4907H48.4124C55.265 86.4907 61.2767 85.1202 66.4473 82.3791C71.6802 79.6381 75.6984 75.7757 78.5017 70.7919C81.3674 65.8082 82.8002 60.1081 82.8002 53.6915C82.8002 47.2126 81.3674 41.5125 78.5017 36.591C75.6984 31.6073 71.7114 27.7449 66.5407 25.0038ZM39.8203 60.6959L23.8363 83.5705V86.4907H26.2698L44.5803 72.6609H47.3845C53.4273 72.6609 58.1307 71.01 61.4947 67.7083C64.8587 64.4065 66.5407 59.7343 66.5407 53.6915C66.5407 47.6487 64.8587 42.9453 61.4947 39.5813C58.1307 36.2173 53.4273 34.5352 47.3845 34.5352C44.799 34.5352 44.1805 34.5352 41.844 34.5352C41.5092 34.5352 42.2144 34.5352 41.844 34.5352C40.3839 34.5352 39.8972 34.9012 39.8972 36.3613C39.8972 47.8 39.8203 48.9505 39.8203 60.6959Z" fill="#EEF2F8"/>
<path d="M46.2242 13L43.3041 21.7605L59.8516 23.2206L56.9315 13H46.2242Z" fill="#EEF2F8"/>
<path d="M66.6654 25.654L75.4258 21.2738L83.2129 29.0609L78.8327 37.8214L66.6654 25.654Z" fill="#EEF2F8"/>
<path d="M91 48.5286L79.8061 45.1218V63.1294L91 59.2359V48.5286Z" fill="#EEF2F8"/>
<path d="M82.7262 78.2169L78.346 68.9697L66.1787 81.1371L74.9391 86.004L82.7262 78.2169Z" fill="#EEF2F8"/>
<path d="M45.7375 93.7911L42.8174 85.5173L59.8516 84.0572L56.4448 93.7911H45.7375Z" fill="#EEF2F8"/>
<path d="M46.2242 13L43.3041 21.7605L59.8516 23.2206L56.9315 13H46.2242Z" stroke="#EEF2F8" stroke-width="2" stroke-linejoin="round"/>
<path d="M66.6654 25.654L75.4258 21.2738L83.2129 29.0609L78.8327 37.8214L66.6654 25.654Z" stroke="#EEF2F8" stroke-width="2" stroke-linejoin="round"/>
<path d="M91 48.5286L79.8061 45.1218V63.1294L91 59.2359V48.5286Z" stroke="#EEF2F8" stroke-width="2" stroke-linejoin="round"/>
<path d="M82.7262 78.2169L78.346 68.9697L66.1787 81.1371L74.9391 86.004L82.7262 78.2169Z" stroke="#EEF2F8" stroke-width="2" stroke-linejoin="round"/>
<path d="M45.7375 93.7911L42.8174 85.5173L59.8516 84.0572L56.4448 93.7911H45.7375Z" stroke="#EEF2F8" stroke-width="2" stroke-linejoin="round"/>
<path d="M38.4371 20.7871L23.8363 33.4411H38.4371V20.7871Z" fill="#023DFE"/>
<path d="M39.0367 41C39.0367 41 14.4307 95.2165 14 96.078L61 73.7335H44.1517L19.115 90.963L39.0367 61.6189V41Z" fill="#EEF2F8"/>
</svg>
